HIERARCHY
ROOT root
{
	OFFSET 0.000000 0.000000 0.000000
	CHANNELS 6 Xposition Yposition Zposition Zrotation Yrotation Xrotation
	JOINT lhip
	{
		OFFSET 0.058581 -0.082280 -0.017664
		CHANNELS 3 Zrotation Yrotation Xrotation
		JOINT lknee
		{
			OFFSET 0.043451 -0.386469 0.008037
			CHANNELS 3 Zrotation Yrotation Xrotation
			JOINT lankle
			{
				OFFSET -0.014790 -0.426874 -0.037428
				CHANNELS 3 Zrotation Yrotation Xrotation
				JOINT ltoe
				{
					OFFSET 0.041054 -0.060286 0.122042
					CHANNELS 3 Zrotation Yrotation Xrotation
					End Site
					{
						OFFSET 0.000000 0.000000 0.000000
					}
				}
			}
		}
	}
	JOINT rhip
	{
		OFFSET -0.060310 -0.090513 -0.013543
		CHANNELS 3 Zrotation Yrotation Xrotation
		JOINT rknee
		{
			OFFSET -0.043257 -0.383688 -0.004843
			CHANNELS 3 Zrotation Yrotation Xrotation
			JOINT rankle
			{
				OFFSET 0.019056 -0.420046 -0.034562
				CHANNELS 3 Zrotation Yrotation Xrotation
				JOINT rtoe
				{
					OFFSET -0.034840 -0.062106 0.130323
					CHANNELS 3 Zrotation Yrotation Xrotation
					End Site
					{
						OFFSET 0.000000 0.000000 0.000000
					}
				}
			}
		}
	}
	JOINT lowerback
	{
		OFFSET 0.004439 0.124404 -0.038385
		CHANNELS 3 Zrotation Yrotation Xrotation
		JOINT upperback
		{
			OFFSET 0.004488 0.137956 0.026820
			CHANNELS 3 Zrotation Yrotation Xrotation
			JOINT chest
			{
				OFFSET -0.002265 0.056032 0.002855
				CHANNELS 3 Zrotation Yrotation Xrotation
				JOINT lowerneck
				{
					OFFSET -0.013390 0.211636 -0.033468
					CHANNELS 3 Zrotation Yrotation Xrotation
					JOINT upperneck
					{
						OFFSET 0.010113 0.088937 0.050410
						CHANNELS 3 Zrotation Yrotation Xrotation
						End Site
						{
							OFFSET 0.000000 0.000000 0.000000
						}
					}
				}
				JOINT lclavicle
				{
					OFFSET 0.071702 0.114000 -0.018898
					CHANNELS 3 Zrotation Yrotation Xrotation
					JOINT lshoulder
					{
						OFFSET 0.122921 0.045205 -0.019046
						CHANNELS 3 Zrotation Yrotation Xrotation
						JOINT lelbow
						{
							OFFSET 0.255332 -0.015649 -0.022946
							CHANNELS 3 Zrotation Yrotation Xrotation
							JOINT lwrist
							{
								OFFSET 0.265709 0.012698 -0.007375
								CHANNELS 3 Zrotation Yrotation Xrotation
								End Site
								{
									OFFSET 0.000000 0.000000 0.000000
								}
							}
						}
					}
				}
				JOINT rclavicle
				{
					OFFSET -0.082954 0.112472 -0.023707
					CHANNELS 3 Zrotation Yrotation Xrotation
					JOINT rshoulder
					{
						OFFSET -0.113228 0.046853 -0.008472
						CHANNELS 3 Zrotation Yrotation Xrotation
						JOINT relbow
						{
							OFFSET -0.260127 -0.014369 -0.031269
							CHANNELS 3 Zrotation Yrotation Xrotation
							JOINT rwrist
							{
								OFFSET -0.269108 0.006794 -0.006027
								CHANNELS 3 Zrotation Yrotation Xrotation
								End Site
								{
									OFFSET 0.000000 0.000000 0.000000
								}
							}
						}
					}
				}
			}
		}
	}
}
MOTION
Frames: 13
Frame Time: 0.033333
-1.898868 0.323195 1.008024 90.577421 -3.944092 86.839251 -7.115731 -1.703912 0.823558 -2.926882 -10.036652 5.378564 5.224079 7.690324 -8.016205 0.000000 -0.000000 0.000000 -3.412729 -2.202654 -6.732184 -2.464936 -7.021905 27.721100 2.725481 -14.479289 -17.128437 0.000000 -0.000000 0.000000 -0.519189 1.106909 13.344100 -0.885734 0.542136 -0.932502 -2.421390 1.317133 4.114473 2.372875 -8.973709 -4.726948 -3.538385 -16.084155 7.807669 -21.864261 7.065037 -0.720181 -52.250421 -8.045080 9.052872 10.085336 -37.557697 5.822581 -6.801983 -3.855272 -5.978818 24.934642 4.528040 -0.760763 47.814265 9.836974 8.892880 -17.566798 18.992093 -17.333682 8.878290 4.052766 -6.756131 
-1.896977 0.327514 1.004642 90.741609 -3.900966 86.072407 -7.303874 -1.694375 1.769112 -3.282595 -10.587081 5.532079 5.607085 8.160565 -8.873558 0.000000 -0.000000 0.000000 -3.661538 -2.210498 -7.578536 -3.011951 -6.950736 31.095714 2.946125 -14.325073 -18.033971 0.000000 -0.000000 0.000000 -0.882961 1.372614 14.028787 -0.892951 0.961039 -1.184426 -2.272063 1.378918 4.349196 2.697942 -9.106336 -4.610911 -3.271085 -16.116077 7.847798 -21.438010 7.104481 -0.514143 -51.598213 -7.861154 8.739834 9.596618 -37.716835 5.821903 -7.815588 -3.697520 -5.993450 24.630929 4.610636 -0.875539 47.829526 8.874484 9.269547 -16.216695 18.021611 -15.557257 11.853560 3.933483 -5.989874 
-1.894459 0.331286 1.001378 90.777278 -3.970085 85.342726 -7.431839 -1.536866 2.728897 -3.885779 -11.546892 5.540259 6.021179 9.035813 -10.051392 0.000000 -0.000000 0.000000 -4.142676 -2.102906 -8.415862 -2.982634 -6.496704 34.411674 3.852669 -13.841794 -18.457271 0.000000 -0.000000 0.000000 -1.338188 1.433602 14.462304 -0.936855 1.254111 -1.247798 -2.314157 1.607206 4.514997 3.155908 -9.271809 -4.747489 -3.050080 -16.719012 7.736228 -21.178787 7.128556 -0.526778 -50.469261 -7.478774 8.473007 8.932022 -37.501453 5.958489 -8.065027 -3.622230 -5.843980 24.776462 4.651661 -0.814418 48.270869 8.085683 9.684590 -15.330853 17.393191 -14.081652 13.236204 3.547049 -5.119088 
-1.891913 0.334622 0.998566 91.164944 -4.003977 84.700631 -7.572973 -1.359795 3.372828 -4.261711 -11.886696 5.895736 6.529259 9.343594 -10.386466 0.000000 -0.000000 0.000000 -4.552874 -1.937280 -10.082111 -3.227696 -5.669775 39.119332 4.030944 -14.044338 -18.260673 0.000000 -0.000000 0.000000 -2.000648 1.585109 14.596081 -0.811919 1.219020 -0.974642 -2.307678 1.555573 4.666722 3.576819 -9.423187 -5.190761 -2.822516 -17.069817 7.508774 -20.821236 7.112136 -0.433346 -49.693628 -7.427934 8.007207 9.085671 -36.165261 5.313835 -8.146817 -3.802367 -6.335561 25.199461 4.448692 -0.580526 49.597555 7.483511 9.933366 -14.988658 16.602622 -14.254524 13.714927 3.489727 -5.991682 
-1.889268 0.336256 0.998389 91.595550 -3.908601 84.259447 -7.596777 -1.188151 3.920695 -4.353506 -12.632339 6.043691 6.557544 9.470982 -10.696135 0.000000 -0.000000 0.000000 -4.738731 -1.909241 -10.501196 -2.987824 -5.360298 41.095258 4.237070 -13.945264 -17.785966 0.000000 -0.000000 0.000000 -2.203434 1.266919 14.721140 -0.792085 0.964163 -0.973342 -2.410111 1.598955 4.759076 3.763485 -9.237243 -5.359857 -2.685680 -17.243300 7.145019 -20.642778 7.361761 -0.599246 -49.417428 -7.156926 7.652831 9.409810 -34.919155 4.614777 -8.163448 -3.616658 -6.986153 25.790515 4.191271 -0.532385 50.560412 7.163064 9.949267 -15.037665 15.594553 -14.836343 13.454405 3.348420 -6.884656 
-1.886280 0.337089 0.998779 92.228405 -3.546450 83.914174 -7.339631 -1.307686 4.389217 -4.350919 -13.286234 6.173384 6.677793 9.682122 -10.709148 0.000000 -0.000000 0.000000 -4.592489 -1.611462 -10.939945 -2.568669 -5.348551 42.938945 3.911771 -14.023377 -17.974966 0.000000 -0.000000 0.000000 -2.620093 1.058464 14.629033 -0.489757 0.698082 -0.937593 -2.182063 1.382868 4.673946 3.752514 -8.983529 -5.134726 -2.541141 -17.277398 6.760630 -20.492877 7.538206 -0.468069 -49.494104 -7.091391 7.105612 10.096079 -32.652502 3.247428 -8.161831 -3.264945 -7.593813 26.440942 3.435990 -0.386374 51.766606 6.511235 9.702005 -15.377808 15.053114 -15.944390 13.864723 2.745454 -8.506622 
-1.883138 0.337065 0.999622 92.876651 -3.061454 83.726070 -6.859046 -1.212208 4.841133 -4.174605 -13.982030 6.160403 6.344725 9.567971 -10.743790 0.000000 -0.000000 0.000000 -4.209102 -1.400040 -10.516569 -1.871580 -5.459933 42.632748 3.890614 -13.076666 -20.713343 0.000000 -0.000000 0.000000 -2.894179 0.828314 14.426698 -0.269660 0.222677 -1.032614 -1.925641 1.109209 4.544349 3.882833 -8.500535 -4.974919 -2.290015 -17.457697 6.322781 -20.363914 7.660955 -0.322234 -49.668284 -6.858652 6.488223 10.736031 -30.265653 1.672625 -8.248684 -2.915607 -8.602996 27.127706 2.732126 -0.376985 52.833051 5.957208 9.244979 -15.567756 14.049073 -16.235883 14.026698 2.088670 -9.377067 
-1.879421 0.336208 1.000318 93.284357 -2.672371 83.858249 -6.324191 -1.192119 5.160526 -4.084657 -14.470009 5.853382 6.187558 9.586977 -10.711637 0.000000 -0.000000 0.000000 -3.619455 -1.091887 -10.071268 -0.753560 -4.785633 40.761745 4.105292 -12.086582 -21.715677 0.000000 -0.000000 0.000000 -3.283243 0.626855 13.796196 -0.052755 -0.332405 -1.030368 -1.730854 0.879969 4.423520 4.015151 -7.903618 -5.126056 -1.777756 -17.428692 5.889063 -20.383855 8.108098 -0.411601 -49.490083 -6.624992 6.111176 10.500718 -28.288712 0.768738 -8.046374 -2.308488 -9.087146 27.797828 1.981846 -0.480079 53.553645 5.273937 9.316713 -15.260850 13.460183 -15.749189 13.971126 1.286861 -9.679728 
-1.876370 0.334622 1.000746 93.566319 -2.343703 84.193091 -5.758616 -1.300508 5.079644 -4.132665 -14.668585 5.723005 6.028160 9.583747 -10.810224 0.000000 -0.000000 0.000000 -3.116778 -1.050222 -9.445912 0.243231 -4.096628 37.366929 4.694309 -10.559650 -21.505608 0.000000 -0.000000 0.000000 -3.704433 0.798517 13.169095 0.162876 -0.722352 -1.194709 -1.403546 0.570704 4.240983 4.181632 -7.752587 -5.268744 -1.260551 -17.615319 5.614866 -20.250632 8.288669 -0.442267 -49.630911 -6.522839 6.033110 10.056092 -26.530204 0.708638 -7.643355 -2.268148 -8.975981 28.271802 0.965098 -0.508216 54.345706 4.641131 9.215502 -15.018556 12.741367 -15.164281 13.245469 0.612333 -9.958814 
-1.872937 0.332449 1.000383 93.343772 -2.263876 84.778720 -5.404017 -1.249149 4.704016 -4.176849 -14.361546 5.707364 5.940870 9.236912 -11.047250 0.000000 -0.000000 0.000000 -2.931090 -1.791366 -8.657355 -0.059824 -4.902621 32.956107 3.734275 -11.450650 -19.792200 0.000000 -0.000000 0.000000 -4.022965 0.898031 12.376706 0.102675 -1.183510 -1.663019 -1.191117 0.338772 4.095923 4.126219 -7.777297 -5.776780 -0.754723 -17.406861 5.223828 -20.133725 8.762600 -0.170279 -49.674965 -6.309513 5.905543 9.597218 -25.555689 1.787476 -7.923530 -2.411766 -8.921892 28.622805 -0.024485 -0.331441 55.655813 3.805557 9.012493 -15.769881 11.781403 -15.104125 12.590709 0.385023 -10.317417 
-1.871287 0.330640 1.000890 92.577313 -2.158596 85.287476 -5.184444 -1.328790 4.373310 -4.060419 -14.060464 5.558218 5.919207 9.340716 -11.180536 0.000000 -0.000000 0.000000 -2.628923 -2.372517 -7.965312 0.107772 -4.458177 31.371865 3.308875 -10.231075 -19.418781 0.000000 -0.000000 0.000000 -3.934562 1.103401 11.874233 -0.010721 -1.405872 -1.998531 -1.254843 0.370710 3.920867 4.102270 -7.422565 -6.095098 -0.273710 -17.090123 4.711018 -20.446912 9.000529 -0.259186 -49.425500 -5.916930 5.884239 9.228531 -25.598184 2.477915 -7.823727 -2.037100 -8.150700 28.849212 -0.707501 -0.279859 56.216880 3.060694 8.832081 -16.107651 11.665522 -14.284505 12.160846 -0.067054 -9.549249 
-1.869707 0.328899 1.002272 91.686644 -1.904801 85.773354 -4.944878 -1.469802 4.033055 -3.773643 -13.448433 5.538037 5.958621 9.634037 -11.018677 0.000000 -0.000000 0.000000 -2.364283 -2.054440 -7.251583 0.811817 -3.439793 29.145999 3.217188 -9.959688 -18.608091 0.000000 -0.000000 0.000000 -3.608472 1.187043 11.020505 -0.075753 -1.351190 -1.800098 -1.403955 0.357986 4.072406 4.268098 -7.115456 -6.848759 0.057027 -16.803673 4.441994 -20.978519 9.334376 -0.563153 -49.502746 -6.021775 6.112845 9.120070 -25.858535 2.877335 -7.349000 -2.016403 -7.748571 29.006074 -1.164722 -0.464428 56.391036 2.790738 9.117232 -16.060513 10.974275 -13.514413 11.292974 -0.175434 -8.930395 
-1.868285 0.326704 1.005468 90.923204 -1.298168 85.985669 -4.393254 -1.560616 4.044540 -3.370048 -12.964076 5.423785 5.678945 9.708114 -10.645070 0.000000 -0.000000 0.000000 -1.579160 -2.064802 -6.377421 0.869258 -3.111714 27.195894 3.319185 -9.514976 -17.491237 0.000000 -0.000000 0.000000 -3.140200 1.052131 10.660354 0.097792 -1.190489 -1.738407 -1.277082 0.395159 4.013024 4.256480 -7.207521 -7.382960 0.372426 -16.574860 3.916273 -21.548802 9.487348 -0.549516 -50.182320 -6.024999 6.326582 9.536469 -26.356939 2.666454 -6.846603 -2.125848 -7.715153 28.996906 -1.310558 -0.466784 56.355895 2.374507 9.166044 -16.263273 10.332911 -13.169962 10.504780 -0.663967 -8.428093 
